<svg width="16" height="20" viewBox="0 0 16 20" fill="none" xmlns="http://www.w3.org/2000/svg">
<path d="M14.1873 18.355H13.354V16.9759C13.3522 16.5291 13.261 16.0872 13.0857 15.6763C12.9103 15.2654 12.6545 14.8938 12.3332 14.5834C10.7298 13.0342 10.0757 11.2592 10.0282 8.35337H10.8515C11.0725 8.35337 11.2845 8.26557 11.4407 8.10929C11.597 7.95301 11.6848 7.74105 11.6848 7.52003C11.6848 7.29902 11.597 7.08706 11.4407 6.93078C11.2845 6.7745 11.0725 6.6867 10.8515 6.6867H10.3882C10.6885 6.1824 10.8484 5.60697 10.8515 5.02003C10.8515 3.8742 9.88315 1.92253 9.27398 0.9617C9.08558 0.667156 8.82606 0.424768 8.51936 0.256873C8.21266 0.0889785 7.86863 0.000976562 7.51899 0.000976562C7.16934 0.000976562 6.82531 0.0889785 6.51861 0.256873C6.21191 0.424768 5.95239 0.667156 5.76398 0.9617C5.15399 1.92337 4.18565 3.87837 4.18565 5.02087C4.18911 5.60775 4.34905 6.18308 4.64899 6.68753H4.18815C3.96714 6.68753 3.75518 6.77533 3.5989 6.93161C3.44262 7.08789 3.35482 7.29985 3.35482 7.52087C3.35482 7.74188 3.44262 7.95384 3.5989 8.11012C3.75518 8.2664 3.96714 8.3542 4.18815 8.3542H5.01232C4.96399 11.26 4.30898 13.0342 2.70732 14.5834C2.3866 14.894 2.13123 15.2656 1.9562 15.6763C1.78118 16.087 1.69004 16.5286 1.68815 16.975V18.3542H0.854818C0.633804 18.3542 0.421842 18.442 0.265562 18.5983C0.109282 18.7546 0.0214844 18.9665 0.0214844 19.1875C0.0214844 19.4085 0.109282 19.6205 0.265562 19.7768C0.421842 19.9331 0.633804 20.0209 0.854818 20.0209H14.1882C14.4092 20.0209 14.6211 19.9331 14.7774 19.7768C14.9337 19.6205 15.0215 19.4085 15.0215 19.1875C15.0215 18.9665 14.9337 18.7546 14.7774 18.5983C14.6211 18.442 14.4092 18.3542 14.1882 18.3542L14.1873 18.355ZM7.17315 1.85503C7.2111 1.79744 7.26276 1.75017 7.32348 1.71747C7.3842 1.68476 7.4521 1.66764 7.52107 1.66764C7.59004 1.66764 7.65793 1.68476 7.71866 1.71747C7.77938 1.75017 7.83103 1.79744 7.86899 1.85503C8.50826 2.81584 8.95591 3.89109 9.18732 5.0217C9.18732 5.46373 9.01172 5.88765 8.69916 6.20021C8.3866 6.51277 7.96268 6.68837 7.52065 6.68837C7.07862 6.68837 6.6547 6.51277 6.34214 6.20021C6.02958 5.88765 5.85398 5.46373 5.85398 5.0217C6.08597 3.89139 6.53388 2.81647 7.17315 1.85587V1.85503ZM8.36482 8.35503C8.40982 11.285 9.03149 13.3142 10.4665 15.0217H4.57565C6.00899 13.3142 6.63232 11.2842 6.67815 8.35503H8.36482ZM3.35482 16.9759C3.35605 16.8793 3.3661 16.7831 3.38482 16.6884H11.6582C11.6762 16.7832 11.6859 16.8794 11.6873 16.9759V18.355H3.35398L3.35482 16.9759Z" fill="#373A4C"/>
</svg>
