<svg width="200" height="200" viewBox="0 0 200 200" fill="none" xmlns="http://www.w3.org/2000/svg">
<path d="M64.4379 129.298H64.447C64.4547 129.298 64.4623 129.297 64.4699 129.297H170.703C173.318 129.297 175.618 127.562 176.337 125.047L199.774 43.0161C200.279 41.2476 199.925 39.3464 198.819 37.8785C197.711 36.4106 195.979 35.5469 194.141 35.5469H50.9247L46.7361 16.6977C46.1395 14.0168 43.7622 12.1094 41.0156 12.1094H5.85938C2.62299 12.1094 0 14.7324 0 17.9688C0 21.2052 2.62299 23.8282 5.85938 23.8282H36.3159C37.0575 27.1683 56.3599 114.031 57.4707 119.028C51.2436 121.735 46.875 127.943 46.875 135.156C46.875 144.849 54.7607 152.734 64.4531 152.734H170.703C173.94 152.734 176.562 150.111 176.562 146.875C176.562 143.639 173.94 141.016 170.703 141.016H64.4531C61.2228 141.016 58.5938 138.387 58.5938 135.156C58.5938 131.931 61.2137 129.306 64.4379 129.298ZM186.372 47.2657L166.283 117.578H69.1528L53.5278 47.2657H186.372Z" fill="white"/>
<path d="M58.5938 170.312C58.5938 180.005 66.4795 187.891 76.1719 187.891C85.8643 187.891 93.75 180.005 93.75 170.312C93.75 160.62 85.8643 152.734 76.1719 152.734C66.4795 152.734 58.5938 160.62 58.5938 170.312ZM76.1719 164.453C79.4022 164.453 82.0312 167.082 82.0312 170.312C82.0312 173.543 79.4022 176.172 76.1719 176.172C72.9416 176.172 70.3125 173.543 70.3125 170.312C70.3125 167.082 72.9416 164.453 76.1719 164.453Z" fill="white"/>
<path d="M141.406 170.312C141.406 180.005 149.292 187.891 158.984 187.891C168.677 187.891 176.562 180.005 176.562 170.312C176.562 160.62 168.677 152.734 158.984 152.734C149.292 152.734 141.406 160.62 141.406 170.312ZM158.984 164.453C162.215 164.453 164.844 167.082 164.844 170.312C164.844 173.543 162.215 176.172 158.984 176.172C155.754 176.172 153.125 173.543 153.125 170.312C153.125 167.082 155.754 164.453 158.984 164.453Z" fill="white"/>
</svg>
