<svg width="50" height="49" viewBox="0 0 50 49" fill="none" xmlns="http://www.w3.org/2000/svg">
<path d="M28.7608 10.1402C27.1295 8.78078 24.8173 7.9118 21.8885 7.55751C19.5328 7.27241 17.2804 7.38113 15.8056 7.52248C14.6476 7.6334 13.7744 8.59713 13.7744 9.76422V11.4588C13.7744 11.8553 14.0957 12.1766 14.4922 12.1766C14.8887 12.1766 15.21 11.8553 15.21 11.4588V9.76422C15.21 9.34093 15.5248 8.99152 15.9425 8.95151C18.4097 8.71494 24.5081 8.46477 27.8418 11.243C28.1464 11.4969 28.5989 11.4558 28.8527 11.1511C29.1064 10.8465 29.0653 10.3939 28.7608 10.1402Z" fill="white"/>
<path d="M29.0687 0H19.0953C17.6737 0 16.3107 0.574696 15.3125 1.58599C12.7074 1.93865 10.706 4.19964 10.706 6.85511V8.99091C10.706 10.1775 10.852 11.3631 11.1398 12.5143L11.4731 13.8479V16.5229C11.4731 19.7759 12.9792 22.6998 15.309 24.5802V27.1368C14.8927 27.186 14.5013 27.412 14.2491 27.7903L13.2587 29.276L8.07114 31.1624C5.97611 31.9241 4.5686 33.9336 4.5686 36.1628V42.9119C4.5686 43.3084 4.88988 43.6296 5.28638 43.6296C5.68287 43.6296 6.00415 43.3084 6.00415 42.9119V36.1628C6.00415 34.5351 7.0319 33.0678 8.56171 32.5116L13.4582 30.7311L16.4505 34.9205C16.7047 35.2765 17.1004 35.5012 17.5364 35.5373C17.5776 35.5407 17.6187 35.5424 17.6597 35.5424C18.052 35.5424 18.4289 35.3875 18.709 35.1075L19.1577 34.6588C19.1996 34.993 19.3518 35.2933 19.5783 35.5206L19.146 42.8698C19.1227 43.2656 19.4247 43.6053 19.8204 43.6286C19.8348 43.6294 19.849 43.6298 19.8632 43.6298C20.2402 43.6298 20.5566 43.3355 20.579 42.9542L20.9906 35.9581H21.8031L22.2146 42.9542C22.237 43.3355 22.5534 43.6298 22.9305 43.6298C22.9446 43.6298 22.9589 43.6294 22.9732 43.6286C23.369 43.6053 23.6709 43.2656 23.6477 42.8698L23.2154 35.5206C23.4418 35.2933 23.5941 34.993 23.6361 34.6588L24.0847 35.1075C24.3648 35.3876 24.7415 35.5425 25.134 35.5425C25.1749 35.5425 25.216 35.5408 25.2572 35.5374C25.6931 35.5014 26.0888 35.2765 26.343 34.9207L29.6525 30.2875C29.826 30.0449 29.8311 29.7203 29.6657 29.4721L28.5447 27.7905C28.2925 27.412 27.9011 27.186 27.4848 27.1368V24.6665C27.7847 24.4325 28.0735 24.1804 28.3492 23.9098C30.2653 22.0283 31.3206 19.5134 31.3206 16.8283V13.8479L31.654 12.5144C31.9418 11.3635 32.0877 10.178 32.0877 8.99091V3.01933C32.0879 1.35439 30.7334 0 29.0687 0ZM17.6939 34.0923C17.6895 34.0967 17.6772 34.1078 17.6549 34.1066C17.6322 34.1047 17.6225 34.0912 17.6188 34.086L14.5973 29.856L15.4436 28.5865C15.4584 28.5643 15.4879 28.5576 15.511 28.572L20.2514 31.5349L17.6939 34.0923ZM22.1641 34.5225H20.6298C20.6026 34.5225 20.5804 34.5004 20.5804 34.4732V33.2362L21.3969 32.4197L22.2134 33.2362V34.4732H22.2135C22.2135 34.5003 22.1914 34.5225 22.1641 34.5225ZM21.397 30.558L16.7446 27.6502V25.5473C18.0833 26.288 19.6023 26.7209 21.2114 26.7504C21.2741 26.7516 21.3365 26.7521 21.399 26.7521C23.047 26.752 24.6333 26.3532 26.0494 25.5995V27.6485C26.0494 27.6491 26.0495 27.6497 26.0495 27.6503L21.397 30.558ZM28.1966 29.8561L25.1751 34.0862C25.1714 34.0913 25.1618 34.1048 25.1391 34.1067C25.1151 34.108 25.1045 34.0968 25.1001 34.0924L22.5426 31.535L27.283 28.5721C27.3054 28.5581 27.3357 28.5646 27.3503 28.5866L28.1966 29.8561ZM30.6523 8.99091C30.6523 10.0607 30.5208 11.129 30.2614 12.1663L29.9066 13.5856C29.8925 13.6426 29.8852 13.7009 29.8852 13.7596V16.8282C29.8852 19.1249 28.9825 21.276 27.3434 22.8853C25.7049 24.4943 23.5334 25.3597 21.2376 25.315C16.645 25.2309 12.9086 21.2868 12.9086 16.5229V13.7596C12.9086 13.7009 12.9015 13.6425 12.8872 13.5856L12.5324 12.1662C12.273 11.1287 12.1415 10.0604 12.1415 8.99091V6.85511C12.1415 4.84668 13.7098 3.14729 15.7117 2.98631C15.8965 2.97148 16.0683 2.88573 16.1912 2.74715C16.9306 1.91358 17.989 1.43554 19.0953 1.43554H29.0687C29.9418 1.43554 30.6523 2.14604 30.6523 3.01933V8.99091Z" fill="white"/>
<path d="M10.9745 37.3402L10.5313 36.4536C10.3541 36.0991 9.92292 35.9552 9.56834 36.1326C9.21376 36.3099 9.07001 36.7409 9.24735 37.0956L9.69055 37.9822C9.85286 38.3068 9.93871 38.6703 9.93871 39.0334V42.912C9.93871 43.3085 10.26 43.6297 10.6565 43.6297C11.053 43.6297 11.3743 43.3085 11.3743 42.912V39.0334C11.3743 38.4486 11.2361 37.8631 10.9745 37.3402Z" fill="white"/>
<path d="M35.973 30.6865C30.924 30.6865 26.8164 34.7942 26.8164 39.8431C26.8164 44.8921 30.924 48.9998 35.973 48.9998C41.022 48.9998 45.1296 44.8921 45.1296 39.8431C45.1296 34.7941 41.022 30.6865 35.973 30.6865ZM35.973 47.5641C31.7156 47.5641 28.252 44.1004 28.252 39.843C28.252 35.5856 31.7155 32.122 35.973 32.122C40.2304 32.122 43.6941 35.5856 43.6941 39.843C43.6941 44.1004 40.2305 47.5641 35.973 47.5641Z" fill="white"/>
<path fill-rule="evenodd" clip-rule="evenodd" d="M39.8338 35.7811C39.8419 35.8306 39.8314 35.883 39.7991 35.9261C39.792 35.9354 39.7823 35.9406 39.774 35.9483L39.3298 36.5378L39.481 36.6518C39.4911 36.6568 39.502 36.6592 39.5112 36.6661C39.5542 36.6987 39.5787 36.7462 39.5845 36.7958C39.5926 36.8452 39.5821 36.8976 39.5498 36.9407C39.5429 36.9499 39.533 36.9552 39.5247 36.9629L34.2874 43.9138C34.2718 43.9577 34.2428 43.9968 34.1999 44.0203L32.4206 45.0236C32.4103 45.0311 32.3995 45.0366 32.3877 45.0421L32.3856 45.0434C32.3841 45.0442 32.3823 45.0441 32.3811 45.0449C32.3639 45.0522 32.3466 45.0587 32.3273 45.0612C32.3086 45.0644 32.2906 45.0634 32.2718 45.061C32.2678 45.0604 32.2643 45.0617 32.2601 45.0609C32.2585 45.0605 32.2573 45.0593 32.2557 45.0589C32.2379 45.055 32.2219 45.0474 32.2058 45.0383C32.1975 45.034 32.189 45.0303 32.1817 45.0249C32.1745 45.0194 32.1686 45.0122 32.1622 45.0055C32.149 44.9926 32.1375 44.9791 32.1286 44.9632C32.1276 44.9617 32.1263 44.9609 32.1255 44.9595C32.1236 44.9558 32.1239 44.9519 32.1221 44.948C32.1148 44.931 32.1089 44.9138 32.1067 44.8951C32.104 44.8759 32.1053 44.8575 32.1076 44.8387C32.1081 44.8371 32.1073 44.8356 32.1077 44.8342L32.1085 44.8316C32.1107 44.8189 32.1127 44.8069 32.1171 44.7949L32.591 42.8079C32.602 42.7602 32.6316 42.7215 32.6695 42.6944L37.2545 36.6102C37.1812 36.4571 37.0166 36.3609 36.8395 36.3858C36.7225 36.4022 36.6256 36.4685 36.5645 36.5594L36.5638 36.5591L36.0271 37.2714L36.0278 37.2719L34.8987 38.7703C34.8358 38.8538 34.717 38.8705 34.6333 38.8076C34.5498 38.7447 34.5331 38.6257 34.596 38.5422L36.2556 36.3401C36.2584 36.3363 36.2623 36.3348 36.2654 36.3314C36.3848 36.1646 36.5681 36.0442 36.7873 36.0133C37.0659 35.9742 37.3271 36.0911 37.4923 36.2948L37.9075 35.744C37.9126 35.7341 37.915 35.7232 37.9219 35.714C37.9544 35.6708 38.0019 35.6463 38.0517 35.6407C38.1011 35.6324 38.1535 35.6428 38.1967 35.6754C38.2059 35.6823 38.2112 35.6921 38.2188 35.7003L38.37 35.8142L38.8143 35.2247C38.8193 35.2148 38.8217 35.2038 38.8286 35.1946C38.8612 35.1515 38.9087 35.127 38.9584 35.1213C39.0078 35.113 39.0602 35.1235 39.1034 35.156C39.1126 35.163 39.1179 35.1728 39.1255 35.1809L39.7308 35.6371C39.741 35.6421 39.7517 35.6445 39.7611 35.6515C39.8035 35.6841 39.828 35.7316 39.8338 35.7811ZM32.6041 44.4648L33.7616 43.8119L32.9124 43.1719L32.6041 44.4648ZM38.1155 36.0973L33.0589 42.8078L34.0712 43.5707L39.1278 36.8601L38.1155 36.0973ZM39.0222 35.578L38.6723 36.0424L39.0271 36.3097L39.377 35.8453L39.0222 35.578Z" fill="white"/>
</svg>
