<svg width="50" height="50" viewBox="0 0 50 50" fill="none" xmlns="http://www.w3.org/2000/svg">
<path d="M49.4062 29.3575V23.3371L47.1734 22.7689C47.0786 22.5147 46.9718 22.2597 46.8547 22.0063L48.0332 20.0229L43.7763 15.766L41.7929 16.9453C41.5403 16.8282 41.2845 16.7214 41.0311 16.6266L40.4629 14.3945H38.25V4.03516C38.25 1.83817 36.4626 0.0507812 34.2656 0.0507812H3.98438C1.78739 0.0507812 0 1.83817 0 4.03516V11.207H6.375V31.9258H3.98438C1.78739 31.9258 0 33.7132 0 35.9102C0 38.1071 1.78739 39.8945 3.98438 39.8945H6.375V45.4727C6.375 47.6696 8.16239 49.457 10.3594 49.457H40.6406C42.8376 49.457 44.625 47.6696 44.625 45.4727V41.4883H38.25V38.3008H40.4629L41.0311 36.0679C41.2845 35.9731 41.5403 35.8671 41.7929 35.7492L43.7763 36.9286L48.0332 32.6717L46.8547 30.6882C46.9718 30.4356 47.0786 30.1806 47.1734 29.9264L49.4062 29.3575ZM1.59375 9.61328V4.03516C1.59375 2.71712 2.66634 1.64453 3.98438 1.64453C5.30241 1.64453 6.375 2.71712 6.375 4.03516V9.61328H1.59375ZM6.375 36.707H20.7188V38.3008H6.375V36.707ZM22.3125 34.012L25.2275 35.4695C25.3956 35.554 25.5 35.7221 25.5 35.9102C25.5 36.0982 25.3956 36.2664 25.2275 36.3508L22.3125 37.8083V34.012ZM20.7188 35.1133H6.375V33.5195H20.7188V35.1133ZM1.59375 35.9102C1.59375 34.5921 2.66634 33.5195 3.98438 33.5195H4.78125V38.3008H3.98438C2.66634 38.3008 1.59375 37.2282 1.59375 35.9102ZM43.0312 45.4727C43.0312 46.7907 41.9587 47.8633 40.6406 47.8633H13.5453C14.0465 47.1971 14.3438 46.3691 14.3438 45.4727V43.082H43.0312V45.4727ZM36.6562 41.4883H12.75V45.4727C12.75 46.7907 11.6774 47.8633 10.3594 47.8633C9.04134 47.8633 7.96875 46.7907 7.96875 45.4727V39.8945H21.7037L25.9399 37.7764C26.6515 37.421 27.0938 36.7054 27.0938 35.9102C27.0938 35.1149 26.6515 34.3993 25.9407 34.0439L21.7037 31.9258H7.96875V4.03516C7.96875 3.13469 7.65717 2.31231 7.15116 1.64453H34.2656C35.5837 1.64453 36.6562 2.71712 36.6562 4.03516V14.3945H34.4433L33.8752 16.6274C33.6217 16.7222 33.366 16.8282 33.1133 16.9461L31.1299 15.7668L26.873 20.0237L28.0516 22.0071C27.9345 22.2605 27.8277 22.5147 27.7328 22.7697L25.5 23.3379V29.3582L27.7328 29.9264C27.8277 30.1806 27.9345 30.4356 28.0516 30.6882L26.873 32.6717L31.1299 36.9286L33.1133 35.7492C33.366 35.8663 33.6217 35.9731 33.8752 36.0679L34.4433 38.3008H36.6562V41.4883ZM46.0307 32.4206L43.5261 34.9252L41.8567 33.9323L41.4646 34.1347C41.0183 34.365 40.5673 34.5531 40.1211 34.6957L39.7003 34.8304L39.2246 36.707H35.6825L35.2059 34.8312L34.7852 34.6965C34.3389 34.5539 33.8879 34.3658 33.4417 34.1355L33.0496 33.9331L31.3801 34.926L28.8756 32.4214L29.8685 30.7512L29.6645 30.3583C29.435 29.9137 29.2461 29.4626 29.1035 29.0172L28.9696 28.5964L27.0938 28.1191V24.577L28.9696 24.0997L29.1035 23.6789C29.2461 23.2343 29.435 22.7824 29.6653 22.3378L29.8685 21.9449L28.8756 20.2755L31.3801 17.7709L33.0496 18.7638L33.4417 18.5614C33.8879 18.3311 34.3389 18.143 34.7852 18.0004L35.2059 17.8657L35.6817 15.9883H39.2238L39.7003 17.8641L40.1211 17.9988C40.5673 18.1414 41.0183 18.3295 41.4646 18.5598L41.8567 18.7622L43.5261 17.7693L46.0307 20.2739L45.0378 21.9433L45.241 22.3362C45.4713 22.7816 45.6601 23.2327 45.8028 23.6773L45.9367 24.0981L47.8125 24.5762V28.1183L45.9367 28.5956L45.8028 29.0164C45.6601 29.4618 45.4713 29.9129 45.2418 30.3575L45.0378 30.7504L46.0307 32.4206Z" fill="white"/>
<path d="M37.4531 19.1758C33.4982 19.1758 30.2812 22.3936 30.2812 26.3477C30.2812 30.3018 33.4982 33.5195 37.4531 33.5195C41.408 33.5195 44.625 30.3018 44.625 26.3477C44.625 22.3936 41.408 19.1758 37.4531 19.1758ZM37.4531 31.9258C34.378 31.9258 31.875 29.4236 31.875 26.3477C31.875 23.2717 34.378 20.7695 37.4531 20.7695C40.5283 20.7695 43.0312 23.2717 43.0312 26.3477C43.0312 29.4236 40.5283 31.9258 37.4531 31.9258Z" fill="white"/>
<path d="M35.0625 3.23828H9.5625V12.8008H35.0625V3.23828ZM33.4688 11.207H11.1562V4.83203H33.4688V11.207Z" fill="white"/>
<path d="M9.5625 14.3945H23.9062V15.9883H9.5625V14.3945Z" fill="white"/>
<path d="M22.3125 17.582H23.9062V19.1758H22.3125V17.582Z" fill="white"/>
<path d="M9.5625 17.582H20.7188V19.1758H9.5625V17.582Z" fill="white"/>
<path d="M9.5625 20.7695H23.9062V22.3633H9.5625V20.7695Z" fill="white"/>
<path d="M12.75 23.957H23.9062V25.5508H12.75V23.957Z" fill="white"/>
<path d="M9.5625 23.957H11.1562V25.5508H9.5625V23.957Z" fill="white"/>
<path d="M9.5625 27.1445H23.9062V28.7383H9.5625V27.1445Z" fill="white"/>
</svg>
